<svg version="1.0" xmlns="http://www.w3.org/2000/svg" width="1529.333" height="1706.667" viewBox="0 0 1147 1280"><path d="M963.3 1c-51.2 6.5-97.7 33.8-126.9 74.6-7.3 10.3-14.5 23.6-20.4 37.9-12.1 29.2-16.3 39.6-27.2 68-15.4 40-25.8 64.5-37.3 87.5-23.5 47-47.8 81.8-81.5 116.4-20.2 20.8-32.2 31-81.7 69.3l-18.1 14.1-26.4-20.5c-40-31.2-58.9-48.2-79.7-71.8-44.7-50.5-71.8-99.9-108.3-197-11.7-31-26.8-67.8-32.9-79.8-21.8-43.4-67-78.5-116.4-90.5-17-4.2-21.7-4.7-42.5-4.6-23.2 0-31.8 1.4-53.5 8.5C59.8 29.5 24.4 67.4 7.6 123c-5.2 17.2-7 30.7-7 52.5-.1 23.8 2.2 38.4 10 64.3 15.6 51.9 59.7 98.2 110.4 116 18.7 6.5 25.6 7.6 48 7.7 20 0 20.8-.1 34-3.4 25.1-6.3 46.2-14.7 58.8-23.3 2.6-1.8 10.6-8.9 17.8-15.9 13.8-13.4 17.6-15.7 24-14.4 9.8 1.8 23.8 22.8 57.4 86.5 35.2 66.7 66.3 118.2 102.8 170.6l7.1 10-113.7 160.5C294.7 822.3 223.4 923 198.8 957.7c-24.6 34.7-47.1 67.1-49.9 71.9-19 32.9-31.4 67-36.5 100.6-2.1 14.1-2.4 45.4-.6 58.3 4.1 27.7 13.8 54.2 29.7 80.5 5.3 8.8 7.1 11 8.9 11 2.5 0-14.7 23.1 267.6-361 82.6-112.5 151-205.3 151.9-206.2 1.5-1.6 2.8-.1 18.6 21.5C618.2 775 672.4 849.1 799 1022c67.8 92.7 138 188.6 155.9 213.2l32.6 44.7 6.2.1h6.1l5.5-9.3c17-28.6 25.9-56 28.8-88.7 3.5-39.6-6.9-85.8-29-130-9.1-18.1-12.3-23.1-34.1-54-10.3-14.6-44.7-63.4-76.5-108.5-65.7-93.1-125.1-177.3-182.9-259.3l-39.7-56.3 12.4-17.7c38-54.2 63.1-96 106.8-177.7 31.8-59.6 43.8-76.5 54.4-76.5 5 0 12 4.8 23 16 11.9 12 20.4 18.2 33 24.1 15.3 7 38.5 14.1 56 17 10.3 1.7 32.3 1.4 44-.6 36.8-6.3 74.3-28.7 100.2-59.8 22.9-27.5 35.2-55.3 42.9-96.8 2.5-13.1 2.5-45.5.1-59.4-8.7-49.8-33.7-91.1-69.9-115.1-15.7-10.5-38.8-19.7-61.3-24.4C1002 .6 975-.5 963.3 1zm34.2 75.5c14.2 2.5 33.4 11.7 45.9 22.1 20.7 17 33 51.5 29.6 82.9-3.1 29.2-13.7 52.4-32 69.8-20.7 19.8-43.4 28.9-72.5 29.1-28.3.1-51.8-8.6-70.8-26.4-17.8-16.7-25.4-33.4-27.2-60-2.8-41.2 23.5-84.8 64.3-106.3 20.9-11 42.1-14.8 62.7-11.2zm-816.6 4c23.9 4.6 45.3 16.5 63.2 35.2 18.4 19.3 28.7 40.2 31.9 65.1 2 16-.8 36.5-6.9 50.6-5.5 12.5-18.5 27.4-31.3 35.9-19.6 12.9-45.8 19.3-69.4 16.7-47.2-5-83-37.9-92.3-84.7-3.8-19.4-3.6-34.5 1-52.8 4.2-17 15.9-35.9 28.3-45.6 12.6-9.8 30.4-18.2 44.1-20.8 7.9-1.4 22.6-1.2 31.4.4z"/></svg>